<svg xmlns="http://www.w3.org/2000/svg" viewBox="0 0 1036 2000" width="1036" height="2000">
<rect width="1036" height="2000" fill="white"/>
<polygon data-id="r-collections" points="140,98 459,98 459,708 140,708" fill="#f5f5f4" stroke="#d6d3d1" stroke-width="1"/>
<text x="299.5" y="403" font-family="monospace" font-size="11.5" fill="#44403c" text-anchor="middle" dominant-baseline="middle">ARTS &amp; CULTURES COLLECTIONS</text>
<polygon data-id="r-workroom" points="140,708 459,708 459,962 140,962" fill="#f5f5f4" stroke="#d6d3d1" stroke-width="1"/>
<text x="299.5" y="835" font-family="monospace" font-size="13" fill="#44403c" text-anchor="middle" dominant-baseline="middle">ARTS &amp; CULTURES WORKROOM</text>
<polygon data-id="r-nw-native-art" points="459,98 812,98 812,178 925,178 925,640 677,640 677,962 459,962" fill="#f5f5f4" stroke="#d6d3d1" stroke-width="1"/>
<text x="718.25" y="469.5" font-family="monospace" font-size="11" fill="#44403c" text-anchor="middle" dominant-baseline="middle">NORTHWEST NATIVE ART GALLERY</text>
<polygon data-id="r-culture-living" points="140,962 677,962 677,1390 140,1390" fill="#f5f5f4" stroke="#d6d3d1" stroke-width="1"/>
<text x="408.5" y="1176" font-family="monospace" font-size="12.5" fill="#44403c" text-anchor="middle" dominant-baseline="middle">CULTURE IS LIVING GALLERY</text>
<polygon data-id="r-artist-studio" points="677,640 925,640 925,820 677,820" fill="#f5f5f4" stroke="#d6d3d1" stroke-width="1"/>
<text x="801" y="730" font-family="monospace" font-size="18.5" fill="#44403c" text-anchor="middle" dominant-baseline="middle">ARTIST STUDIO</text>
<polygon data-id="r-restroom" points="677,820 925,820 925,1150 677,1150" fill="#f5f5f4" stroke="#d6d3d1" stroke-width="1"/>
<text x="801" y="985" font-family="monospace" font-size="20" fill="#44403c" text-anchor="middle" dominant-baseline="middle">RESTROOM</text>
<polygon data-id="r-cafe" points="677,1398 925,1398 925,1675 677,1675" fill="#f5f5f4" stroke="#d6d3d1" stroke-width="1"/>
<text x="801" y="1536.5" font-family="monospace" font-size="17" fill="#44403c" text-anchor="middle" dominant-baseline="middle">OFF THE REZ CAFÉ</text>
<polygon data-id="r-admission-store" points="140,1390 677,1390 677,1612 458,1612 458,1750 140,1750" fill="#f5f5f4" stroke="#d6d3d1" stroke-width="1"/>
<text x="425" y="1584" font-family="monospace" font-size="16.5" fill="#44403c" text-anchor="middle" dominant-baseline="middle">ADMISSION + STORE</text>
<polygon data-id="r-cascade-room" points="415,1750 815,1750 815,1970 415,1970" fill="#f5f5f4" stroke="#d6d3d1" stroke-width="1"/>
<text x="615" y="1860" font-family="monospace" font-size="19" fill="#44403c" text-anchor="middle" dominant-baseline="middle">CASCADE ROOM</text>
<line data-id="w-top" x1="140" y1="98" x2="925" y2="98" stroke="#1c1917" stroke-width="4" stroke-linecap="butt"/>
<line data-id="w-left" x1="140" y1="98" x2="140" y2="1970" stroke="#1c1917" stroke-width="4" stroke-linecap="butt"/>
<line data-id="w-bottom" x1="140" y1="1970" x2="815" y2="1970" stroke="#1c1917" stroke-width="4" stroke-linecap="butt"/>
<line data-id="w-right-top" x1="925" y1="98" x2="925" y2="1675" stroke="#1c1917" stroke-width="4" stroke-linecap="butt"/>
<line data-id="w-cascade-right" x1="815" y1="1750" x2="815" y2="1970" stroke="#1c1917" stroke-width="4" stroke-linecap="butt"/>
<line data-id="w-cascade-top" x1="415" y1="1750" x2="815" y2="1750" stroke="#1c1917" stroke-width="4" stroke-linecap="butt"/>
<line data-id="w-elev1-left" x1="812" y1="98" x2="812" y2="178" stroke="#1c1917" stroke-width="4" stroke-linecap="butt"/>
<line data-id="w-elev1-bot" x1="812" y1="178" x2="925" y2="178" stroke="#1c1917" stroke-width="4" stroke-linecap="butt"/>
<line data-id="w-art-top" x1="677" y1="640" x2="925" y2="640" stroke="#1c1917" stroke-width="4" stroke-linecap="butt"/>
<line data-id="w-art-bot" x1="677" y1="820" x2="925" y2="820" stroke="#1c1917" stroke-width="4" stroke-linecap="butt"/>
<line data-id="w-stair-right" x1="677" y1="640" x2="677" y2="1150" stroke="#1c1917" stroke-width="4" stroke-linecap="butt"/>
<line data-id="w-restroom-mid" x1="740" y1="980" x2="925" y2="980" stroke="#1c1917" stroke-width="4" stroke-linecap="butt"/>
<line data-id="w-elev2-top" x1="677" y1="1270" x2="780" y2="1270" stroke="#1c1917" stroke-width="4" stroke-linecap="butt"/>
<line data-id="w-elev2-left" x1="677" y1="1270" x2="677" y2="1398" stroke="#1c1917" stroke-width="4" stroke-linecap="butt"/>
<line data-id="w-elev2-right" x1="780" y1="1270" x2="780" y2="1398" stroke="#1c1917" stroke-width="4" stroke-linecap="butt"/>
<line data-id="w-cafe-top" x1="677" y1="1398" x2="925" y2="1398" stroke="#1c1917" stroke-width="4" stroke-linecap="butt"/>
<line data-id="w-cafe-left" x1="677" y1="1398" x2="677" y2="1675" stroke="#1c1917" stroke-width="4" stroke-linecap="butt"/>
<line data-id="w-cafe-bot" x1="677" y1="1675" x2="925" y2="1675" stroke="#1c1917" stroke-width="4" stroke-linecap="butt"/>
<line data-id="w-admin-div" x1="160" y1="1612" x2="458" y2="1612" stroke="#1c1917" stroke-width="4" stroke-linecap="butt"/>
<line data-id="w-elev3-left" x1="390" y1="1765" x2="390" y2="1970" stroke="#1c1917" stroke-width="4" stroke-linecap="butt"/>
<line data-id="w-elev3-right" x1="498" y1="1765" x2="498" y2="1970" stroke="#1c1917" stroke-width="4" stroke-linecap="butt"/>
<line data-id="w-elev3-top" x1="390" y1="1765" x2="498" y2="1765" stroke="#1c1917" stroke-width="4" stroke-linecap="butt"/>
<circle data-id="d-1" cx="750" cy="1675" r="45" fill="none" stroke="#0d9488" stroke-width="3"/>
<g data-id="f-elev-1" transform="translate(868 138) rotate(0)">
<rect x="-16" y="-16" width="32" height="32" fill="white" stroke="#7c3aed" stroke-width="3"/>
<text font-family="monospace" font-size="18" fill="#7c3aed" text-anchor="middle" dominant-baseline="middle">E</text>
</g>
<g data-id="f-elev-2" transform="translate(710 1335) rotate(0)">
<rect x="-16" y="-16" width="32" height="32" fill="white" stroke="#7c3aed" stroke-width="3"/>
<text font-family="monospace" font-size="18" fill="#7c3aed" text-anchor="middle" dominant-baseline="middle">E</text>
</g>
<g data-id="f-elev-3" transform="translate(444 1825) rotate(0)">
<rect x="-16" y="-16" width="32" height="32" fill="white" stroke="#7c3aed" stroke-width="3"/>
<text font-family="monospace" font-size="18" fill="#7c3aed" text-anchor="middle" dominant-baseline="middle">E</text>
</g>
<g data-id="f-stairs-1" transform="translate(615 970) rotate(0)">
<rect x="-16" y="-16" width="32" height="32" fill="white" stroke="#7c3aed" stroke-width="3"/>
<text font-family="monospace" font-size="18" fill="#7c3aed" text-anchor="middle" dominant-baseline="middle">S</text>
</g>
<g data-id="f-stairs-2" transform="translate(335 1755) rotate(270)">
<rect x="-16" y="-16" width="32" height="32" fill="white" stroke="#7c3aed" stroke-width="3"/>
<text font-family="monospace" font-size="18" fill="#7c3aed" text-anchor="middle" dominant-baseline="middle">S</text>
</g>
<g data-id="f-restroom-1" transform="translate(763 880) rotate(0)">
<rect x="-16" y="-16" width="32" height="32" fill="white" stroke="#7c3aed" stroke-width="3"/>
<text font-family="monospace" font-size="18" fill="#7c3aed" text-anchor="middle" dominant-baseline="middle">WC</text>
</g>
<g data-id="f-entrance-1" transform="translate(645 1650) rotate(180)">
<rect x="-16" y="-16" width="32" height="32" fill="white" stroke="#7c3aed" stroke-width="3"/>
<text font-family="monospace" font-size="18" fill="#7c3aed" text-anchor="middle" dominant-baseline="middle">→</text>
</g>
<g data-id="f-exit-1" transform="translate(810 1215) rotate(90)">
<rect x="-16" y="-16" width="32" height="32" fill="white" stroke="#7c3aed" stroke-width="3"/>
<text font-family="monospace" font-size="18" fill="#7c3aed" text-anchor="middle" dominant-baseline="middle">X</text>
</g>
</svg>