<svg xmlns="http://www.w3.org/2000/svg" viewBox="0 0 2000 1629" width="2000" height="1629">
<rect width="2000" height="1629" fill="white"/>
<polygon data-id="r-comp" points="400,67 650,67 650,245 400,245" fill="#f5f5f4" stroke="#d6d3d1" stroke-width="1"/>
<text x="525" y="156" font-family="monospace" font-size="19" fill="#44403c" text-anchor="middle" dominant-baseline="middle">COMPUTER LAB</text>
<polygon data-id="r-navajo" points="400,245 650,245 650,428 400,428" fill="#f5f5f4" stroke="#d6d3d1" stroke-width="1"/>
<text x="525" y="336.5" font-family="monospace" font-size="20" fill="#44403c" text-anchor="middle" dominant-baseline="middle">NAVAJO RM</text>
<polygon data-id="r-hopi" points="345,435 650,435 650,625 345,625" fill="#f5f5f4" stroke="#d6d3d1" stroke-width="1"/>
<text x="497.5" y="530" font-family="monospace" font-size="20" fill="#44403c" text-anchor="middle" dominant-baseline="middle">HOPI RM</text>
<polygon data-id="r-pima" points="345,625 650,625 650,825 345,825" fill="#f5f5f4" stroke="#d6d3d1" stroke-width="1"/>
<text x="497.5" y="725" font-family="monospace" font-size="20" fill="#44403c" text-anchor="middle" dominant-baseline="middle">PIMA RM</text>
<polygon data-id="r-oflynn-patio" points="198,780 345,780 378,1070 198,1070" fill="#f5f5f4" stroke="#d6d3d1" stroke-width="1"/>
<text x="279.75" y="925" font-family="monospace" font-size="18.5" fill="#44403c" text-anchor="middle" dominant-baseline="middle">O'FLYNN PATIO</text>
<polygon data-id="r-oflynn" points="378,825 662,825 662,1008 378,1008" fill="#f5f5f4" stroke="#d6d3d1" stroke-width="1"/>
<text x="520" y="916.5" font-family="monospace" font-size="18" fill="#44403c" text-anchor="middle" dominant-baseline="middle">O'FLYNN CENTER</text>
<polygon data-id="r-conf" points="378,1008 560,1008 560,1215 378,1215" fill="#f5f5f4" stroke="#d6d3d1" stroke-width="1"/>
<text x="469" y="1111.5" font-family="monospace" font-size="20" fill="#44403c" text-anchor="middle" dominant-baseline="middle">CONF</text>
<polygon data-id="r-117" points="560,1008 662,1008 662,1110 560,1110" fill="#f5f5f4" stroke="#d6d3d1" stroke-width="1"/>
<text x="611" y="1059" font-family="monospace" font-size="20" fill="#44403c" text-anchor="middle" dominant-baseline="middle">117 SF</text>
<polygon data-id="r-113" points="560,1110 662,1110 662,1215 560,1215" fill="#f5f5f4" stroke="#d6d3d1" stroke-width="1"/>
<text x="611" y="1162.5" font-family="monospace" font-size="20" fill="#44403c" text-anchor="middle" dominant-baseline="middle">113 SF</text>
<polygon data-id="r-office-148" points="410,1240 535,1240 535,1315 410,1315" fill="#f5f5f4" stroke="#d6d3d1" stroke-width="1"/>
<text x="472.5" y="1277.5" font-family="monospace" font-size="20" fill="#44403c" text-anchor="middle" dominant-baseline="middle">148 SF</text>
<polygon data-id="r-office-139" points="535,1240 665,1240 665,1315 535,1315" fill="#f5f5f4" stroke="#d6d3d1" stroke-width="1"/>
<text x="600" y="1277.5" font-family="monospace" font-size="20" fill="#44403c" text-anchor="middle" dominant-baseline="middle">139 SF</text>
<polygon data-id="r-office-134" points="410,1315 505,1315 505,1390 410,1390" fill="#f5f5f4" stroke="#d6d3d1" stroke-width="1"/>
<text x="457.5" y="1352.5" font-family="monospace" font-size="20" fill="#44403c" text-anchor="middle" dominant-baseline="middle">134 SF</text>
<polygon data-id="r-office-127" points="505,1315 665,1315 665,1390 505,1390" fill="#f5f5f4" stroke="#d6d3d1" stroke-width="1"/>
<text x="585" y="1352.5" font-family="monospace" font-size="20" fill="#44403c" text-anchor="middle" dominant-baseline="middle">127 SF</text>
<polygon data-id="r-art" points="740,190 965,190 965,540 740,540" fill="#f5f5f4" stroke="#d6d3d1" stroke-width="1"/>
<text x="852.5" y="365" font-family="monospace" font-size="20" fill="#44403c" text-anchor="middle" dominant-baseline="middle">ART RM</text>
<polygon data-id="r-storage-1167" points="965,190 1195,190 1195,540 965,540" fill="#f5f5f4" stroke="#d6d3d1" stroke-width="1"/>
<text x="1080" y="365" font-family="monospace" font-size="20" fill="#44403c" text-anchor="middle" dominant-baseline="middle">STORAGE</text>
<polygon data-id="r-util-86" points="1195,270 1275,270 1275,360 1195,360" fill="#f5f5f4" stroke="#d6d3d1" stroke-width="1"/>
<text x="1235" y="315" font-family="monospace" font-size="20" fill="#44403c" text-anchor="middle" dominant-baseline="middle">86 SF</text>
<polygon data-id="r-util-215" points="1195,360 1275,360 1275,540 1195,540" fill="#f5f5f4" stroke="#d6d3d1" stroke-width="1"/>
<text x="1235" y="450" font-family="monospace" font-size="20" fill="#44403c" text-anchor="middle" dominant-baseline="middle">215 SF</text>
<polygon data-id="r-util-42" points="1275,270 1315,270 1315,360 1275,360" fill="#f5f5f4" stroke="#d6d3d1" stroke-width="1"/>
<text x="1295" y="315" font-family="monospace" font-size="20" fill="#44403c" text-anchor="middle" dominant-baseline="middle">42 SF</text>
<polygon data-id="r-util-75" points="1315,270 1395,270 1395,360 1315,360" fill="#f5f5f4" stroke="#d6d3d1" stroke-width="1"/>
<text x="1355" y="315" font-family="monospace" font-size="20" fill="#44403c" text-anchor="middle" dominant-baseline="middle">75 SF</text>
<polygon data-id="r-util-305" points="1315,360 1395,360 1395,540 1315,540" fill="#f5f5f4" stroke="#d6d3d1" stroke-width="1"/>
<text x="1355" y="450" font-family="monospace" font-size="20" fill="#44403c" text-anchor="middle" dominant-baseline="middle">305 SF</text>
<polygon data-id="r-service-hall" points="1165,540 1640,540 1640,625 1165,625" fill="#f5f5f4" stroke="#d6d3d1" stroke-width="1"/>
<text x="1402.5" y="582.5" font-family="monospace" font-size="19" fill="#44403c" text-anchor="middle" dominant-baseline="middle">SERVICE HALL</text>
<polygon data-id="r-stor-143" points="1455,250 1620,250 1620,330 1455,330" fill="#f5f5f4" stroke="#d6d3d1" stroke-width="1"/>
<text x="1537.5" y="290" font-family="monospace" font-size="20" fill="#44403c" text-anchor="middle" dominant-baseline="middle">143 SF</text>
<polygon data-id="r-storage-493" points="1455,330 1620,330 1620,540 1455,540" fill="#f5f5f4" stroke="#d6d3d1" stroke-width="1"/>
<text x="1537.5" y="435" font-family="monospace" font-size="20" fill="#44403c" text-anchor="middle" dominant-baseline="middle">STORAGE</text>
<polygon data-id="r-kitchen" points="1620,250 1815,250 1815,625 1620,625" fill="#f5f5f4" stroke="#d6d3d1" stroke-width="1"/>
<text x="1717.5" y="437.5" font-family="monospace" font-size="20" fill="#44403c" text-anchor="middle" dominant-baseline="middle">KITCHEN</text>
<polygon data-id="r-yavapai" points="740,625 1020,625 1020,825 740,825" fill="#f5f5f4" stroke="#d6d3d1" stroke-width="1"/>
<text x="880" y="725" font-family="monospace" font-size="20" fill="#44403c" text-anchor="middle" dominant-baseline="middle">YAVAPAI RM</text>
<polygon data-id="r-144" points="740,825 855,825 855,905 740,905" fill="#f5f5f4" stroke="#d6d3d1" stroke-width="1"/>
<text x="797.5" y="865" font-family="monospace" font-size="20" fill="#44403c" text-anchor="middle" dominant-baseline="middle">144 SF</text>
<polygon data-id="r-233" points="855,825 1020,825 1020,905 855,905" fill="#f5f5f4" stroke="#d6d3d1" stroke-width="1"/>
<text x="937.5" y="865" font-family="monospace" font-size="20" fill="#44403c" text-anchor="middle" dominant-baseline="middle">233 SF</text>
<polygon data-id="r-restroom-w" points="740,905 880,905 880,1210 740,1210" fill="#f5f5f4" stroke="#d6d3d1" stroke-width="1"/>
<text x="810" y="1057.5" font-family="monospace" font-size="19.5" fill="#44403c" text-anchor="middle" dominant-baseline="middle">RESTROOMS W</text>
<polygon data-id="r-restroom-m" points="880,905 1020,905 1020,1210 880,1210" fill="#f5f5f4" stroke="#d6d3d1" stroke-width="1"/>
<text x="950" y="1057.5" font-family="monospace" font-size="19.5" fill="#44403c" text-anchor="middle" dominant-baseline="middle">RESTROOMS M</text>
<polygon data-id="r-lounge" points="740,1240 1020,1240 1020,1390 740,1390" fill="#f5f5f4" stroke="#d6d3d1" stroke-width="1"/>
<text x="880" y="1315" font-family="monospace" font-size="20" fill="#44403c" text-anchor="middle" dominant-baseline="middle">LOUNGE</text>
<polygon data-id="r-lobby" points="520,1390 1310,1390 1310,1610 520,1610" fill="#f5f5f4" stroke="#d6d3d1" stroke-width="1"/>
<text x="915" y="1500" font-family="monospace" font-size="20" fill="#44403c" text-anchor="middle" dominant-baseline="middle">LOBBY</text>
<polygon data-id="r-main-hall" points="650,67 740,67 740,1390 650,1390" fill="#f5f5f4" stroke="#d6d3d1" stroke-width="1"/>
<text x="695" y="728.5" font-family="monospace" font-size="20" fill="#44403c" text-anchor="middle" dominant-baseline="middle">MAIN HALL</text>
<polygon data-id="r-ballroom-1" points="1160,980 1500,980 1500,1340 1160,1340" fill="#f5f5f4" stroke="#d6d3d1" stroke-width="1"/>
<text x="1330" y="1160" font-family="monospace" font-size="20" fill="#44403c" text-anchor="middle" dominant-baseline="middle">BALLROOM 1</text>
<polygon data-id="r-ballroom-2" points="1160,625 1500,625 1500,980 1160,980" fill="#f5f5f4" stroke="#d6d3d1" stroke-width="1"/>
<text x="1330" y="802.5" font-family="monospace" font-size="20" fill="#44403c" text-anchor="middle" dominant-baseline="middle">BALLROOM 2</text>
<polygon data-id="r-ballroom-3" points="1500,625 1840,625 1840,980 1500,980" fill="#f5f5f4" stroke="#d6d3d1" stroke-width="1"/>
<text x="1670" y="802.5" font-family="monospace" font-size="20" fill="#44403c" text-anchor="middle" dominant-baseline="middle">BALLROOM 3</text>
<polygon data-id="r-ballroom-4" points="1500,980 1840,980 1840,1340 1500,1340" fill="#f5f5f4" stroke="#d6d3d1" stroke-width="1"/>
<text x="1670" y="1160" font-family="monospace" font-size="20" fill="#44403c" text-anchor="middle" dominant-baseline="middle">BALLROOM 4</text>
<polygon data-id="r-glass-hall" points="1270,1340 1830,1340 1830,1420 1270,1420" fill="#f5f5f4" stroke="#d6d3d1" stroke-width="1"/>
<text x="1550" y="1380" font-family="monospace" font-size="20" fill="#44403c" text-anchor="middle" dominant-baseline="middle">GLASS HALL</text>
<polygon data-id="r-patio" points="1840,640 1950,640 1995,780 1995,1180 1950,1320 1840,1320" fill="#f5f5f4" stroke="#d6d3d1" stroke-width="1"/>
<text x="1928.3333333333333" y="980" font-family="monospace" font-size="20" fill="#44403c" text-anchor="middle" dominant-baseline="middle">PATIO</text>
<polygon data-id="fur-lounge" points="780,1260 980,1260 980,1370 780,1370" fill="#d6d3d1" stroke="#a8a29e" stroke-width="2"/>
<text x="880" y="1315" font-family="monospace" font-size="16" fill="#44403c" text-anchor="middle" dominant-baseline="middle">seating</text>
<polygon data-id="fur-desk-1" points="570,1340 660,1340 660,1430 570,1430" fill="#d6d3d1" stroke="#a8a29e" stroke-width="2"/>
<text x="615" y="1385" font-family="monospace" font-size="16" fill="#44403c" text-anchor="middle" dominant-baseline="middle">counter</text>
<polygon data-id="fur-desk-2" points="570,1480 660,1480 660,1580 570,1580" fill="#d6d3d1" stroke="#a8a29e" stroke-width="2"/>
<text x="615" y="1530" font-family="monospace" font-size="16" fill="#44403c" text-anchor="middle" dominant-baseline="middle">counter</text>
<polygon data-id="fur-kitch-island" points="1690,360 1760,360 1760,480 1690,480" fill="#d6d3d1" stroke="#a8a29e" stroke-width="2"/>
<text x="1725" y="420" font-family="monospace" font-size="16" fill="#44403c" text-anchor="middle" dominant-baseline="middle">counter</text>
<polygon data-id="fur-stor-shelves" points="1470,260 1605,260 1605,290 1470,290" fill="#d6d3d1" stroke="#a8a29e" stroke-width="2"/>
<text x="1537.5" y="275" font-family="monospace" font-size="16" fill="#44403c" text-anchor="middle" dominant-baseline="middle">bookshelves</text>
<line data-id="w-comp-top" x1="400" y1="67" x2="650" y2="67" stroke="#1c1917" stroke-width="10" stroke-linecap="butt"/>
<line data-id="w-comp-left" x1="400" y1="67" x2="400" y2="245" stroke="#1c1917" stroke-width="10" stroke-linecap="butt"/>
<line data-id="w-comp-nav-div" x1="400" y1="245" x2="650" y2="245" stroke="#1c1917" stroke-width="10" stroke-linecap="butt"/>
<line data-id="w-nav-left" x1="400" y1="245" x2="400.07" y2="434.37" stroke="#1c1917" stroke-width="10" stroke-linecap="butt"/>
<line data-id="w-nav-bottom" x1="400.07" y1="434.37" x2="650" y2="431.5" stroke="#1c1917" stroke-width="10" stroke-linecap="butt"/>
<line data-id="w-comp-nav-right" x1="650" y1="67" x2="650" y2="431.5" stroke="#1c1917" stroke-width="10" stroke-linecap="butt"/>
<line data-id="w-hopi-top" x1="345" y1="435" x2="650" y2="431.5" stroke="#1c1917" stroke-width="10" stroke-linecap="butt"/>
<line data-id="w-hopi-pima-left" x1="345" y1="435" x2="345" y2="825" stroke="#1c1917" stroke-width="10" stroke-linecap="butt"/>
<line data-id="w-hopi-pima-div" x1="345" y1="625" x2="652.95" y2="624.96" stroke="#1c1917" stroke-width="10" stroke-linecap="butt"/>
<line data-id="w-pima-bottom" x1="345" y1="825" x2="656" y2="825" stroke="#1c1917" stroke-width="10" stroke-linecap="butt"/>
<line data-id="w-hopi-pima-right" x1="650" y1="431.5" x2="656" y2="825" stroke="#1c1917" stroke-width="10" stroke-linecap="butt"/>
<line data-id="w-patio-top" x1="345" y1="780" x2="198" y2="780" stroke="#1c1917" stroke-width="8" stroke-linecap="butt"/>
<line data-id="w-patio-west" x1="198" y1="780" x2="198" y2="1070" stroke="#1c1917" stroke-width="8" stroke-linecap="butt"/>
<line data-id="w-patio-bot" x1="198" y1="1070" x2="378" y2="1070" stroke="#1c1917" stroke-width="8" stroke-linecap="butt"/>
<line data-id="w-oflynn-top" x1="378" y1="825" x2="656" y2="825" stroke="#1c1917" stroke-width="10" stroke-linecap="butt"/>
<line data-id="w-oflynn-left" x1="378" y1="825" x2="378" y2="1008" stroke="#1c1917" stroke-width="10" stroke-linecap="butt"/>
<line data-id="w-oflynn-conf-div" x1="378" y1="1008" x2="662" y2="1008" stroke="#1c1917" stroke-width="10" stroke-linecap="butt"/>
<line data-id="w-oflynn-right" x1="656" y1="825" x2="662" y2="1008" stroke="#1c1917" stroke-width="10" stroke-linecap="butt"/>
<line data-id="w-oflynn-part-v" x1="580" y1="825" x2="580" y2="1008" stroke="#1c1917" stroke-width="8" stroke-linecap="butt"/>
<line data-id="w-oflynn-part-h" x1="580" y1="915" x2="658.9540939597315" y2="915.0998657718121" stroke="#1c1917" stroke-width="8" stroke-linecap="butt"/>
<line data-id="w-conf-left" x1="378" y1="1008" x2="378" y2="1215" stroke="#1c1917" stroke-width="10" stroke-linecap="butt"/>
<line data-id="w-conf-bottom" x1="378" y1="1215" x2="662" y2="1215" stroke="#1c1917" stroke-width="10" stroke-linecap="butt"/>
<line data-id="w-conf-div-v" x1="560" y1="1008" x2="560" y2="1215" stroke="#1c1917" stroke-width="8" stroke-linecap="butt"/>
<line data-id="w-conf-div-h" x1="560" y1="1110" x2="662" y2="1110" stroke="#1c1917" stroke-width="8" stroke-linecap="butt"/>
<line data-id="w-conf-right" x1="662" y1="1008" x2="662" y2="1215" stroke="#1c1917" stroke-width="10" stroke-linecap="butt"/>
<line data-id="w-off-top" x1="410" y1="1240" x2="665" y2="1240" stroke="#1c1917" stroke-width="10" stroke-linecap="butt"/>
<line data-id="w-off-left" x1="410" y1="1240" x2="410" y2="1390" stroke="#1c1917" stroke-width="10" stroke-linecap="butt"/>
<line data-id="w-off-bottom" x1="410" y1="1390" x2="665" y2="1390" stroke="#1c1917" stroke-width="10" stroke-linecap="butt"/>
<line data-id="w-off-right" x1="665" y1="1240" x2="665" y2="1390" stroke="#1c1917" stroke-width="10" stroke-linecap="butt"/>
<line data-id="w-off-div-h" x1="410" y1="1315" x2="665" y2="1315" stroke="#1c1917" stroke-width="8" stroke-linecap="butt"/>
<line data-id="w-off-div-v1" x1="535" y1="1240" x2="535" y2="1315" stroke="#1c1917" stroke-width="8" stroke-linecap="butt"/>
<line data-id="w-off-div-v2" x1="505" y1="1315" x2="512.5" y2="1390" stroke="#1c1917" stroke-width="8" stroke-linecap="butt"/>
<line data-id="w-art-top" x1="740" y1="190" x2="965" y2="190" stroke="#1c1917" stroke-width="10" stroke-linecap="butt"/>
<line data-id="w-art-left" x1="740" y1="190" x2="740" y2="540" stroke="#1c1917" stroke-width="10" stroke-linecap="butt"/>
<line data-id="w-art-div" x1="965" y1="190" x2="965" y2="540" stroke="#1c1917" stroke-width="10" stroke-linecap="butt"/>
<line data-id="w-art-bottom" x1="740" y1="540" x2="965" y2="540" stroke="#1c1917" stroke-width="10" stroke-linecap="butt"/>
<line data-id="w-stor-top" x1="965" y1="190" x2="1195" y2="190" stroke="#1c1917" stroke-width="10" stroke-linecap="butt"/>
<line data-id="w-stor-right" x1="1195" y1="190" x2="1195" y2="540" stroke="#1c1917" stroke-width="10" stroke-linecap="butt"/>
<line data-id="w-stor-bottom" x1="965" y1="540" x2="1195" y2="540" stroke="#1c1917" stroke-width="10" stroke-linecap="butt"/>
<line data-id="w-util-top" x1="1195" y1="270" x2="1395" y2="270" stroke="#1c1917" stroke-width="10" stroke-linecap="butt"/>
<line data-id="w-util-left" x1="1195" y1="270" x2="1195" y2="540" stroke="#1c1917" stroke-width="10" stroke-linecap="butt"/>
<line data-id="w-util-div-v1" x1="1275" y1="270" x2="1275" y2="540" stroke="#1c1917" stroke-width="8" stroke-linecap="butt"/>
<line data-id="w-util-div-v2" x1="1315" y1="270" x2="1315" y2="360" stroke="#1c1917" stroke-width="8" stroke-linecap="butt"/>
<line data-id="w-util-div-h" x1="1195" y1="360" x2="1395" y2="360" stroke="#1c1917" stroke-width="8" stroke-linecap="butt"/>
<line data-id="w-util-right" x1="1395" y1="270" x2="1395" y2="540" stroke="#1c1917" stroke-width="10" stroke-linecap="butt"/>
<line data-id="w-util-bottom" x1="1195" y1="540" x2="1395" y2="540" stroke="#1c1917" stroke-width="10" stroke-linecap="butt"/>
<line data-id="w-stor493-top" x1="1455" y1="250" x2="1620" y2="250" stroke="#1c1917" stroke-width="10" stroke-linecap="butt"/>
<line data-id="w-stor493-left" x1="1455" y1="250" x2="1455" y2="540" stroke="#1c1917" stroke-width="10" stroke-linecap="butt"/>
<line data-id="w-stor493-div-h" x1="1455" y1="330" x2="1620" y2="330" stroke="#1c1917" stroke-width="8" stroke-linecap="butt"/>
<line data-id="w-stor493-bottom" x1="1455" y1="540" x2="1620" y2="540" stroke="#1c1917" stroke-width="10" stroke-linecap="butt"/>
<line data-id="w-stor-kitch-div" x1="1620" y1="250" x2="1620" y2="540" stroke="#1c1917" stroke-width="10" stroke-linecap="butt"/>
<line data-id="w-kitch-top" x1="1620" y1="250" x2="1815" y2="250" stroke="#1c1917" stroke-width="10" stroke-linecap="butt"/>
<line data-id="w-kitch-right" x1="1815" y1="250" x2="1815" y2="625" stroke="#1c1917" stroke-width="10" stroke-linecap="butt"/>
<line data-id="w-kitch-bottom" x1="1620" y1="625" x2="1815" y2="625" stroke="#1c1917" stroke-width="10" stroke-linecap="butt"/>
<line data-id="w-yav-top" x1="740" y1="625" x2="1020" y2="625" stroke="#1c1917" stroke-width="10" stroke-linecap="butt"/>
<line data-id="w-yav-left" x1="740" y1="625" x2="740" y2="825" stroke="#1c1917" stroke-width="10" stroke-linecap="butt"/>
<line data-id="w-yav-right" x1="1020" y1="625" x2="1020" y2="825" stroke="#1c1917" stroke-width="10" stroke-linecap="butt"/>
<line data-id="w-yav-bottom" x1="740" y1="825" x2="1020" y2="825" stroke="#1c1917" stroke-width="10" stroke-linecap="butt"/>
<line data-id="w-rest-left" x1="740" y1="825" x2="740" y2="1210" stroke="#1c1917" stroke-width="10" stroke-linecap="butt"/>
<line data-id="w-rest-right" x1="1020" y1="825" x2="1020" y2="1210" stroke="#1c1917" stroke-width="10" stroke-linecap="butt"/>
<line data-id="w-rest-bottom" x1="740" y1="1210" x2="1020" y2="1210" stroke="#1c1917" stroke-width="10" stroke-linecap="butt"/>
<line data-id="w-rest-div-v1" x1="855" y1="825" x2="855" y2="905" stroke="#1c1917" stroke-width="8" stroke-linecap="butt"/>
<line data-id="w-rest-div-v2" x1="880" y1="905" x2="880" y2="1210" stroke="#1c1917" stroke-width="8" stroke-linecap="butt"/>
<line data-id="w-rest-div-h" x1="740" y1="905" x2="1020" y2="905" stroke="#1c1917" stroke-width="8" stroke-linecap="butt"/>
<line data-id="w-lounge-top" x1="740" y1="1240" x2="1020" y2="1240" stroke="#1c1917" stroke-width="10" stroke-linecap="butt"/>
<line data-id="w-ball-north" x1="1160" y1="625" x2="1840" y2="625" stroke="#1c1917" stroke-width="12" stroke-linecap="butt"/>
<line data-id="w-ball-west" x1="1160" y1="625" x2="1160" y2="1340" stroke="#1c1917" stroke-width="12" stroke-linecap="butt"/>
<line data-id="w-ball-south" x1="1160" y1="1340" x2="1836.67" y2="1340" stroke="#1c1917" stroke-width="12" stroke-linecap="butt"/>
<line data-id="w-ball-east" x1="1840" y1="625" x2="1836.67" y2="1340" stroke="#1c1917" stroke-width="12" stroke-linecap="butt"/>
<line data-id="w-ball-div-h" x1="1160" y1="980" x2="1838.35" y2="979.99" stroke="#1c1917" stroke-width="10" stroke-linecap="butt"/>
<line data-id="w-ball-div-v" x1="1500" y1="625" x2="1500" y2="1340" stroke="#1c1917" stroke-width="10" stroke-linecap="butt"/>
<line data-id="w-glass-south" x1="1270" y1="1420" x2="1830" y2="1420" stroke="#1c1917" stroke-width="8" stroke-linecap="butt"/>
<line data-id="w-glass-east" x1="1836.67" y1="1340" x2="1830" y2="1420" stroke="#1c1917" stroke-width="8" stroke-linecap="butt"/>
<line data-id="w-glass-west" x1="1270" y1="1340" x2="1270" y2="1420" stroke="#1c1917" stroke-width="8" stroke-linecap="butt"/>
<line data-id="w-lobby-west" x1="512.5" y1="1390" x2="520" y2="1610" stroke="#1c1917" stroke-width="10" stroke-linecap="butt"/>
<line data-id="w-lobby-south" x1="520" y1="1610" x2="1310" y2="1610" stroke="#1c1917" stroke-width="12" stroke-linecap="butt"/>
<line data-id="w-lobby-east" x1="1310" y1="1420" x2="1310" y2="1610" stroke="#1c1917" stroke-width="10" stroke-linecap="butt"/>
<circle data-id="win-comp" cx="525" cy="67" r="25" fill="none" stroke="#0ea5e9" stroke-width="3"/>
<circle data-id="win-pima" cx="495" cy="825" r="25" fill="none" stroke="#0ea5e9" stroke-width="3"/>
<circle data-id="win-oflynn" cx="495" cy="1008" r="25" fill="none" stroke="#0ea5e9" stroke-width="3"/>
<circle data-id="win-kitch-top" cx="1715" cy="250" r="30" fill="none" stroke="#0ea5e9" stroke-width="3"/>
<circle data-id="d-comp" cx="650" cy="215" r="17.5" fill="none" stroke="#0d9488" stroke-width="3"/>
<circle data-id="d-nav" cx="650" cy="290" r="17.5" fill="none" stroke="#0d9488" stroke-width="3"/>
<circle data-id="d-hall-comp-art" cx="695" cy="210" r="22.5" fill="none" stroke="#0d9488" stroke-width="3"/>
<circle data-id="d-hopi" cx="650.74" cy="480" r="17.5" fill="none" stroke="#0d9488" stroke-width="3"/>
<circle data-id="d-pima" cx="655.16" cy="770" r="17.5" fill="none" stroke="#0d9488" stroke-width="3"/>
<circle data-id="d-hall-hopi-yav" cx="695" cy="540" r="22.5" fill="none" stroke="#0d9488" stroke-width="3"/>
<circle data-id="d-patio-gate" cx="245" cy="1070" r="20" fill="none" stroke="#0d9488" stroke-width="3"/>
<circle data-id="d-oflynn-top" cx="656.82" cy="850" r="22.5" fill="none" stroke="#0d9488" stroke-width="3"/>
<circle data-id="d-oflynn-bot" cx="661.08" cy="980" r="22.5" fill="none" stroke="#0d9488" stroke-width="3"/>
<circle data-id="d-oflynn-patio" cx="378" cy="860" r="22.5" fill="none" stroke="#0d9488" stroke-width="3"/>
<circle data-id="d-oflynn-part1" cx="580" cy="860" r="17.5" fill="none" stroke="#0d9488" stroke-width="3"/>
<circle data-id="d-oflynn-part2" cx="580" cy="960" r="17.5" fill="none" stroke="#0d9488" stroke-width="3"/>
<circle data-id="d-conf-117" cx="560" cy="1060" r="17.5" fill="none" stroke="#0d9488" stroke-width="3"/>
<circle data-id="d-conf-113" cx="560" cy="1150" r="17.5" fill="none" stroke="#0d9488" stroke-width="3"/>
<circle data-id="d-conf-out" cx="540" cy="1215" r="17.5" fill="none" stroke="#0d9488" stroke-width="3"/>
<circle data-id="d-off-148" cx="485" cy="1240" r="17.5" fill="none" stroke="#0d9488" stroke-width="3"/>
<circle data-id="d-off-139" cx="595" cy="1240" r="17.5" fill="none" stroke="#0d9488" stroke-width="3"/>
<circle data-id="d-hall-office-lounge" cx="700" cy="1225" r="22.5" fill="none" stroke="#0d9488" stroke-width="3"/>
<circle data-id="d-off-134-127" cx="508.47" cy="1349.65" r="15" fill="none" stroke="#0d9488" stroke-width="3"/>
<circle data-id="d-off-139-127" cx="595" cy="1315" r="17.5" fill="none" stroke="#0d9488" stroke-width="3"/>
<circle data-id="d-off-127" cx="665" cy="1350" r="17.5" fill="none" stroke="#0d9488" stroke-width="3"/>
<circle data-id="d-art-left" cx="740" cy="380" r="17.5" fill="none" stroke="#0d9488" stroke-width="3"/>
<circle data-id="d-art-bot" cx="790" cy="540" r="17.5" fill="none" stroke="#0d9488" stroke-width="3"/>
<circle data-id="d-art-top" cx="915" cy="190" r="17.5" fill="none" stroke="#0d9488" stroke-width="3"/>
<circle data-id="d-stor-top" cx="1005" cy="190" r="17.5" fill="none" stroke="#0d9488" stroke-width="3"/>
<circle data-id="d-stor-bot" cx="1135" cy="540" r="17.5" fill="none" stroke="#0d9488" stroke-width="3"/>
<circle data-id="d-util-42-n" cx="1290" cy="270" r="17.5" fill="none" stroke="#0d9488" stroke-width="3"/>
<circle data-id="d-util-75-n" cx="1360" cy="270" r="17.5" fill="none" stroke="#0d9488" stroke-width="3"/>
<circle data-id="d-util-86-215" cx="1235" cy="360" r="15" fill="none" stroke="#0d9488" stroke-width="3"/>
<circle data-id="d-util-215-s" cx="1215" cy="540" r="17.5" fill="none" stroke="#0d9488" stroke-width="3"/>
<circle data-id="d-util-305-s" cx="1350" cy="540" r="20" fill="none" stroke="#0d9488" stroke-width="3"/>
<circle data-id="d-hall-main-service" cx="1160" cy="580" r="22.5" fill="none" stroke="#0d9488" stroke-width="3"/>
<circle data-id="d-yav-l" cx="740" cy="790" r="17.5" fill="none" stroke="#0d9488" stroke-width="3"/>
<circle data-id="d-yav-r" cx="1020" cy="790" r="17.5" fill="none" stroke="#0d9488" stroke-width="3"/>
<circle data-id="d-rest-144" cx="740" cy="860" r="17.5" fill="none" stroke="#0d9488" stroke-width="3"/>
<circle data-id="d-rest-233-side" cx="1020" cy="870" r="17.5" fill="none" stroke="#0d9488" stroke-width="3"/>
<circle data-id="d-rest-w" cx="795" cy="1210" r="17.5" fill="none" stroke="#0d9488" stroke-width="3"/>
<circle data-id="d-rest-m" cx="965" cy="1210" r="17.5" fill="none" stroke="#0d9488" stroke-width="3"/>
<circle data-id="d-stor-143-kitch" cx="1620" cy="300" r="17.5" fill="none" stroke="#0d9488" stroke-width="3"/>
<circle data-id="d-stor-143-ext" cx="1600" cy="250" r="17.5" fill="none" stroke="#0d9488" stroke-width="3"/>
<circle data-id="d-stor493" cx="1455" cy="460" r="20" fill="none" stroke="#0d9488" stroke-width="3"/>
<circle data-id="d-stor493-kitch" cx="1620" cy="410" r="17.5" fill="none" stroke="#0d9488" stroke-width="3"/>
<circle data-id="d-kitch-bot" cx="1640" cy="625" r="22.5" fill="none" stroke="#0d9488" stroke-width="3"/>
<circle data-id="d-b2-w1" cx="1160" cy="690" r="22.5" fill="none" stroke="#0d9488" stroke-width="3"/>
<circle data-id="d-b2-w2" cx="1160" cy="890" r="22.5" fill="none" stroke="#0d9488" stroke-width="3"/>
<circle data-id="d-b1-w1" cx="1160" cy="1070" r="22.5" fill="none" stroke="#0d9488" stroke-width="3"/>
<circle data-id="d-b1-w2" cx="1160" cy="1270" r="22.5" fill="none" stroke="#0d9488" stroke-width="3"/>
<circle data-id="d-b2-n" cx="1360" cy="625" r="22.5" fill="none" stroke="#0d9488" stroke-width="3"/>
<circle data-id="d-b3-n" cx="1640" cy="625" r="22.5" fill="none" stroke="#0d9488" stroke-width="3"/>
<circle data-id="d-b3-e1" cx="1839.7" cy="690" r="22.5" fill="none" stroke="#0d9488" stroke-width="3"/>
<circle data-id="d-b3-e2" cx="1838.76" cy="890" r="22.5" fill="none" stroke="#0d9488" stroke-width="3"/>
<circle data-id="d-b4-e1" cx="1837.93" cy="1070" r="22.5" fill="none" stroke="#0d9488" stroke-width="3"/>
<circle data-id="d-b4-e2" cx="1836.99" cy="1270" r="22.5" fill="none" stroke="#0d9488" stroke-width="3"/>
<circle data-id="d-b1-s1" cx="1220" cy="1340" r="22.5" fill="none" stroke="#0d9488" stroke-width="3"/>
<circle data-id="d-b1-s2" cx="1420" cy="1340" r="22.5" fill="none" stroke="#0d9488" stroke-width="3"/>
<circle data-id="d-b4-s1" cx="1580" cy="1340" r="22.5" fill="none" stroke="#0d9488" stroke-width="3"/>
<circle data-id="d-b4-s2" cx="1780" cy="1340" r="22.5" fill="none" stroke="#0d9488" stroke-width="3"/>
<circle data-id="d-glass-west" cx="1270" cy="1380" r="22.5" fill="none" stroke="#0d9488" stroke-width="3"/>
<circle data-id="d-glass-east" cx="1833.31" cy="1380.28" r="22.5" fill="none" stroke="#0d9488" stroke-width="3"/>
<circle data-id="d-glass-s1" cx="1360" cy="1420" r="22.5" fill="none" stroke="#0d9488" stroke-width="3"/>
<circle data-id="d-glass-s2" cx="1640" cy="1420" r="22.5" fill="none" stroke="#0d9488" stroke-width="3"/>
<circle data-id="d-lobby-west" cx="515.23" cy="1470.16" r="30" fill="none" stroke="#0d9488" stroke-width="3"/>
<circle data-id="d-lobby-main1" cx="728" cy="1610" r="30" fill="none" stroke="#0d9488" stroke-width="3"/>
<circle data-id="d-lobby-main2" cx="1025" cy="1610" r="30" fill="none" stroke="#0d9488" stroke-width="3"/>
<circle data-id="d-lobby-east-ext" cx="1310" cy="1520" r="22.5" fill="none" stroke="#0d9488" stroke-width="3"/>
<g data-id="f-ent-main" transform="translate(520 1470) rotate(0)">
<rect x="-16" y="-16" width="32" height="32" fill="white" stroke="#7c3aed" stroke-width="3"/>
<text font-family="monospace" font-size="18" fill="#7c3aed" text-anchor="middle" dominant-baseline="middle">→</text>
</g>
<g data-id="f-ent-1" transform="translate(728 1610) rotate(0)">
<rect x="-16" y="-16" width="32" height="32" fill="white" stroke="#7c3aed" stroke-width="3"/>
<text font-family="monospace" font-size="18" fill="#7c3aed" text-anchor="middle" dominant-baseline="middle">→</text>
</g>
<g data-id="f-ent-2" transform="translate(1025 1610) rotate(0)">
<rect x="-16" y="-16" width="32" height="32" fill="white" stroke="#7c3aed" stroke-width="3"/>
<text font-family="monospace" font-size="18" fill="#7c3aed" text-anchor="middle" dominant-baseline="middle">→</text>
</g>
<g data-id="f-rest-w" transform="translate(800 1150) rotate(0)">
<rect x="-16" y="-16" width="32" height="32" fill="white" stroke="#7c3aed" stroke-width="3"/>
<text font-family="monospace" font-size="18" fill="#7c3aed" text-anchor="middle" dominant-baseline="middle">WC</text>
</g>
<g data-id="f-rest-m" transform="translate(960 1150) rotate(0)">
<rect x="-16" y="-16" width="32" height="32" fill="white" stroke="#7c3aed" stroke-width="3"/>
<text font-family="monospace" font-size="18" fill="#7c3aed" text-anchor="middle" dominant-baseline="middle">WC</text>
</g>
<g data-id="f-reception" transform="translate(635 1380) rotate(0)">
<rect x="-16" y="-16" width="32" height="32" fill="white" stroke="#7c3aed" stroke-width="3"/>
<text font-family="monospace" font-size="18" fill="#7c3aed" text-anchor="middle" dominant-baseline="middle">RC</text>
</g>
</svg>